<svg width="34" height="34" viewBox="0 0 34 34" fill="none" xmlns="http://www.w3.org/2000/svg">
<rect width="34" height="34" rx="6" fill="#22AD5C"/>
<g clip-path="url(#clip0_4099_4847)">
<path d="M17.0001 8.50635C12.3032 8.50635 8.50635 12.3032 8.50635 17.0001C8.50635 21.697 12.3032 25.522 17.0001 25.522C21.697 25.522 25.522 21.697 25.522 17.0001C25.522 12.3032 21.697 8.50635 17.0001 8.50635ZM17.0001 24.2563C13.0063 24.2563 9.77197 20.9938 9.77197 17.0001C9.77197 13.0063 13.0063 9.77197 17.0001 9.77197C20.9938 9.77197 24.2563 13.0345 24.2563 17.0282C24.2563 20.9938 20.9938 24.2563 17.0001 24.2563Z" fill="white"/>
<path d="M19.4187 14.3846L16.0718 17.6471L14.5531 16.1565C14.3 15.9034 13.9062 15.9315 13.6531 16.1565C13.4 16.4096 13.4281 16.8034 13.6531 17.0565L15.4531 18.8003C15.6218 18.969 15.8468 19.0534 16.0718 19.0534C16.2968 19.0534 16.5218 18.969 16.6906 18.8003L20.3187 15.3128C20.5718 15.0596 20.5718 14.6659 20.3187 14.4128C20.0656 14.1596 19.6718 14.1596 19.4187 14.3846Z" fill="white"/>
</g>
<defs>
<clipPath id="clip0_4099_4847">
<rect width="18" height="18" fill="white" transform="translate(8 8)"/>
</clipPath>
</defs>
</svg>
