<svg width="20" height="20" viewBox="0 0 20 20" fill="none" xmlns="http://www.w3.org/2000/svg">
<circle cx="10" cy="10" r="10" fill="#E10E0E"/>
<g clip-path="url(#clip0_4134_8872)">
<path d="M9.9999 4.3374C6.86865 4.3374 4.3374 6.86865 4.3374 9.9999C4.3374 13.1312 6.86865 15.6812 9.9999 15.6812C13.1312 15.6812 15.6812 13.1312 15.6812 9.9999C15.6812 6.86865 13.1312 4.3374 9.9999 4.3374ZM9.9999 14.8374C7.3374 14.8374 5.18115 12.6624 5.18115 9.9999C5.18115 7.3374 7.3374 5.18115 9.9999 5.18115C12.6624 5.18115 14.8374 7.35615 14.8374 10.0187C14.8374 12.6624 12.6624 14.8374 9.9999 14.8374Z" fill="white"/>
<path d="M11.7247 8.25596C11.556 8.08721 11.2935 8.08721 11.1247 8.25596L9.99971 9.39971L8.85596 8.25596C8.68721 8.08721 8.42471 8.08721 8.25596 8.25596C8.08721 8.42471 8.08721 8.68721 8.25596 8.85596L9.39971 9.99971L8.25596 11.1435C8.08721 11.3122 8.08721 11.5747 8.25596 11.7435C8.33096 11.8185 8.44346 11.8747 8.55596 11.8747C8.66846 11.8747 8.78096 11.8372 8.85596 11.7435L9.99971 10.5997L11.1435 11.7435C11.2185 11.8185 11.331 11.8747 11.4435 11.8747C11.556 11.8747 11.6685 11.8372 11.7435 11.7435C11.9122 11.5747 11.9122 11.3122 11.7435 11.1435L10.5997 9.99971L11.7435 8.85596C11.8935 8.68721 11.8935 8.42471 11.7247 8.25596Z" fill="white"/>
</g>
<defs>
<clipPath id="clip0_4134_8872">
<rect width="12" height="12" fill="white" transform="translate(4 4)"/>
</clipPath>
</defs>
</svg>
