<svg width="34" height="34" viewBox="0 0 34 34" fill="none" xmlns="http://www.w3.org/2000/svg">
<rect width="34" height="34" rx="8" fill="#F23030"/>
<g clip-path="url(#clip0_4134_1339)">
<path d="M17.0001 8.50635C12.3032 8.50635 8.50635 12.3032 8.50635 17.0001C8.50635 21.697 12.3032 25.522 17.0001 25.522C21.697 25.522 25.522 21.697 25.522 17.0001C25.522 12.3032 21.697 8.50635 17.0001 8.50635ZM17.0001 24.2563C13.0063 24.2563 9.77197 20.9938 9.77197 17.0001C9.77197 13.0063 13.0063 9.77197 17.0001 9.77197C20.9938 9.77197 24.2563 13.0345 24.2563 17.0282C24.2563 20.9938 20.9938 24.2563 17.0001 24.2563Z" fill="white"/>
<path d="M19.5878 14.3847C19.3347 14.1315 18.9409 14.1315 18.6878 14.3847L17.0003 16.1003L15.2847 14.3847C15.0315 14.1315 14.6378 14.1315 14.3847 14.3847C14.1315 14.6378 14.1315 15.0315 14.3847 15.2847L16.1003 17.0003L14.3847 18.7159C14.1315 18.969 14.1315 19.3628 14.3847 19.6159C14.4972 19.7284 14.6659 19.8128 14.8347 19.8128C15.0034 19.8128 15.1722 19.7565 15.2847 19.6159L17.0003 17.9003L18.7159 19.6159C18.8284 19.7284 18.9972 19.8128 19.1659 19.8128C19.3347 19.8128 19.5034 19.7565 19.6159 19.6159C19.869 19.3628 19.869 18.969 19.6159 18.7159L17.9003 17.0003L19.6159 15.2847C19.8409 15.0315 19.8409 14.6378 19.5878 14.3847Z" fill="white"/>
</g>
<defs>
<clipPath id="clip0_4134_1339">
<rect width="18" height="18" fill="white" transform="translate(8 8)"/>
</clipPath>
</defs>
</svg>
