<svg width="24" height="24" viewBox="0 0 24 24" fill="none" xmlns="http://www.w3.org/2000/svg">
<g clip-path="url(#clip0_59_6938)">
<path d="M20.9968 3.97498H18.9718V3.14998C18.9718 2.69998 18.5968 2.28748 18.1093 2.28748C17.6218 2.28748 17.2468 2.66248 17.2468 3.14998V3.93748H6.70928V3.14998C6.70928 2.69998 6.33428 2.28748 5.84678 2.28748C5.35928 2.28748 4.98428 2.66248 4.98428 3.14998V3.93748H2.99678C1.72178 3.93748 0.634277 4.98748 0.634277 6.29998V19.35C0.634277 20.625 1.68428 21.7125 2.99678 21.7125H20.9968C22.2718 21.7125 23.3593 20.6625 23.3593 19.35V6.29998C23.3593 5.02498 22.2718 3.97498 20.9968 3.97498ZM2.99678 5.66248H5.02178V6.41248C5.02178 6.86248 5.39678 7.27498 5.88428 7.27498C6.37178 7.27498 6.74678 6.89998 6.74678 6.41248V5.66248H17.3593V6.41248C17.3593 6.86248 17.7343 7.27498 18.2218 7.27498C18.7093 7.27498 19.0843 6.89998 19.0843 6.41248V5.66248H20.9968C21.3718 5.66248 21.6718 5.96248 21.6718 6.33748V8.81248H2.35928V6.33748C2.35928 5.92498 2.62178 5.66248 2.99678 5.66248ZM20.9968 19.9875H2.99678C2.62178 19.9875 2.32178 19.6875 2.32178 19.3125V10.4625H21.6343V19.35C21.6718 19.725 21.3718 19.9875 20.9968 19.9875Z" fill="#111928"/>
<path d="M10.7968 11.5125H9.9718C9.7468 11.5125 9.5968 11.6625 9.5968 11.8875V12.7125C9.5968 12.9375 9.7468 13.0875 9.9718 13.0875H10.7968C11.0218 13.0875 11.1718 12.9375 11.1718 12.7125V11.8875C11.1718 11.6625 10.9843 11.5125 10.7968 11.5125Z" fill="#111928"/>
<path d="M14.2093 11.5125H13.3843C13.1593 11.5125 13.0093 11.6625 13.0093 11.8875V12.7125C13.0093 12.9375 13.1593 13.0875 13.3843 13.0875H14.2093C14.4343 13.0875 14.5843 12.9375 14.5843 12.7125V11.8875C14.5843 11.6625 14.4343 11.5125 14.2093 11.5125Z" fill="#111928"/>
<path d="M17.6218 11.5125H16.7968C16.5718 11.5125 16.4218 11.6625 16.4218 11.8875V12.7125C16.4218 12.9375 16.5718 13.0875 16.7968 13.0875H17.6218C17.8468 13.0875 17.9968 12.9375 17.9968 12.7125V11.8875C17.9968 11.6625 17.8468 11.5125 17.6218 11.5125Z" fill="#111928"/>
<path d="M7.19683 14.4H6.37183C6.14683 14.4 5.99683 14.55 5.99683 14.775V15.6C5.99683 15.825 6.14683 15.975 6.37183 15.975H7.19683C7.42183 15.975 7.57183 15.825 7.57183 15.6V14.775C7.57183 14.55 7.38433 14.4 7.19683 14.4Z" fill="#111928"/>
<path d="M10.7968 14.4H9.9718C9.7468 14.4 9.5968 14.55 9.5968 14.775V15.6C9.5968 15.825 9.7468 15.975 9.9718 15.975H10.7968C11.0218 15.975 11.1718 15.825 11.1718 15.6V14.775C11.1718 14.55 10.9843 14.4 10.7968 14.4Z" fill="#111928"/>
<path d="M14.2093 14.4H13.3843C13.1593 14.4 13.0093 14.55 13.0093 14.775V15.6C13.0093 15.825 13.1593 15.975 13.3843 15.975H14.2093C14.4343 15.975 14.5843 15.825 14.5843 15.6V14.775C14.5843 14.55 14.4343 14.4 14.2093 14.4Z" fill="#111928"/>
<path d="M17.6218 14.4H16.7968C16.5718 14.4 16.4218 14.55 16.4218 14.775V15.6C16.4218 15.825 16.5718 15.975 16.7968 15.975H17.6218C17.8468 15.975 17.9968 15.825 17.9968 15.6V14.775C17.9968 14.55 17.8468 14.4 17.6218 14.4Z" fill="#111928"/>
<path d="M7.19683 17.2875H6.37183C6.14683 17.2875 5.99683 17.4375 5.99683 17.6625V18.4875C5.99683 18.7125 6.14683 18.8625 6.37183 18.8625H7.19683C7.42183 18.8625 7.57183 18.7125 7.57183 18.4875V17.6625C7.57183 17.4375 7.38433 17.2875 7.19683 17.2875Z" fill="#111928"/>
<path d="M10.7968 17.2875H9.9718C9.7468 17.2875 9.5968 17.4375 9.5968 17.6625V18.4875C9.5968 18.7125 9.7468 18.8625 9.9718 18.8625H10.7968C11.0218 18.8625 11.1718 18.7125 11.1718 18.4875V17.6625C11.1718 17.4375 10.9843 17.2875 10.7968 17.2875Z" fill="#111928"/>
<path d="M14.2093 17.2875H13.3843C13.1593 17.2875 13.0093 17.4375 13.0093 17.6625V18.4875C13.0093 18.7125 13.1593 18.8625 13.3843 18.8625H14.2093C14.4343 18.8625 14.5843 18.7125 14.5843 18.4875V17.6625C14.5843 17.4375 14.4343 17.2875 14.2093 17.2875Z" fill="#111928"/>
</g>
<defs>
<clipPath id="clip0_59_6938">
<rect width="24" height="24" fill="white" transform="translate(-0.00317383)"/>
</clipPath>
</defs>
</svg>
