<svg width="20" height="20" viewBox="0 0 20 20" fill="none" xmlns="http://www.w3.org/2000/svg">
<path d="M11.5937 14.9375C10.3437 14.9375 9.34375 15.9375 9.34375 17.1875C9.34375 18.4375 10.3437 19.4375 11.5937 19.4375C12.8437 19.4375 13.8437 18.4375 13.8437 17.1875C13.8437 15.9688 12.8125 14.9375 11.5937 14.9375ZM11.5937 18.0625C11.125 18.0625 10.75 17.6875 10.75 17.2187C10.75 16.75 11.125 16.375 11.5937 16.375C12.0625 16.375 12.4375 16.75 12.4375 17.2187C12.4375 17.6562 12.0312 18.0625 11.5937 18.0625Z" fill="#FDE8E9"/>
<path d="M5.65625 14.9375C4.40625 14.9375 3.40625 15.9375 3.40625 17.1875C3.40625 18.4375 4.40625 19.4375 5.65625 19.4375C6.90625 19.4375 7.90625 18.4375 7.90625 17.1875C7.90625 15.9688 6.875 14.9375 5.65625 14.9375ZM5.65625 18.0625C5.1875 18.0625 4.8125 17.6875 4.8125 17.2187C4.8125 16.75 5.1875 16.375 5.65625 16.375C6.125 16.375 6.5 16.75 6.5 17.2187C6.5 17.6562 6.125 18.0625 5.65625 18.0625Z" fill="#FDE8E9"/>
<path d="M18.1875 0.5625H16.5C15.75 0.5625 15.0937 1.125 15 1.875L14.5 5.46875H2.15622C1.84372 5.46875 1.53122 5.625 1.31247 5.875C1.12497 6.125 1.03122 6.46875 1.12497 6.78125C1.12497 6.8125 1.12497 6.8125 1.12497 6.84375L3.06247 12.6875C3.18747 13.125 3.59372 13.4375 4.06247 13.4375H12.6875C13.8437 13.4375 14.8437 12.5625 15 11.4063L16.3125 2.0625C16.3125 2 16.375 1.96875 16.4375 1.96875H18.125C18.5 1.96875 18.8437 1.65625 18.8437 1.25C18.8437 0.84375 18.5625 0.5625 18.1875 0.5625ZM13.6562 11.1875C13.5937 11.6563 13.1875 12 12.7187 12H4.34372L2.65622 6.875H14.2812L13.6562 11.1875Z" fill="#FDE8E9"/>
</svg>
