<svg width="20" height="20" viewBox="0 0 25 24" fill="none" xmlns="http://www.w3.org/2000/svg">
<path d="M12.3758 0.675049C6.11328 0.675049 1.05078 5.73755 1.05078 12C1.05078 18.2626 6.11328 23.3625 12.3758 23.3625C18.6383 23.3625 23.7383 18.2626 23.7383 12C23.7383 5.73755 18.6383 0.675049 12.3758 0.675049ZM12.3758 21.675C7.05078 21.675 2.73828 17.325 2.73828 12C2.73828 6.67505 7.05078 2.36255 12.3758 2.36255C17.7008 2.36255 22.0508 6.71255 22.0508 12.0375C22.0508 17.325 17.7008 21.675 12.3758 21.675Z" fill="#FFFFFF"/>
<path d="M15.6006 8.51251L11.1381 12.8625L9.1131 10.875C8.7756 10.5375 8.2506 10.575 7.9131 10.875C7.5756 11.2125 7.6131 11.7375 7.9131 12.075L10.3131 14.4C10.5381 14.625 10.8381 14.7375 11.1381 14.7375C11.4381 14.7375 11.7381 14.625 11.9631 14.4L16.8006 9.75001C17.1381 9.41251 17.1381 8.88751 16.8006 8.55001C16.4631 8.21251 15.9381 8.21251 15.6006 8.51251Z" fill="#FFFFFF"/>
</svg>
