<svg width="20" height="20" viewBox="0 0 20 20" fill="none" xmlns="http://www.w3.org/2000/svg">
<g clip-path="url(#clip0_701_5435)">
<path d="M10 0.5625C4.78125 0.5625 0.5625 4.78125 0.5625 10C0.5625 15.2188 4.78125 19.4688 10 19.4688C15.2188 19.4688 19.4688 15.2188 19.4688 10C19.4688 4.78125 15.2188 0.5625 10 0.5625ZM10 18.0625C5.5625 18.0625 1.96875 14.4375 1.96875 10C1.96875 5.5625 5.5625 1.96875 10 1.96875C14.4375 1.96875 18.0625 5.59375 18.0625 10.0312C18.0625 14.4375 14.4375 18.0625 10 18.0625Z" fill="#122F1D"/>
<path d="M10.5 7.4375C10.2187 7.15625 9.78125 7.15625 9.5 7.4375L5.28125 11.5625C5 11.8438 5 12.2813 5.28125 12.5625C5.40625 12.6875 5.59375 12.7813 5.78125 12.7813C5.96875 12.7813 6.125 12.7188 6.28125 12.5938L10 8.90625L13.7188 12.5625C14 12.8438 14.4375 12.8438 14.7187 12.5625C15 12.2813 15 11.8438 14.7187 11.5625L10.5 7.4375Z" fill="#122F1D"/>
</g>
<defs>
<clipPath id="clip0_701_5435">
<rect width="20" height="20" fill="white"/>
</clipPath>
</defs>
</svg>
