<svg width="21" height="20" viewBox="0 0 21 20" fill="none" xmlns="http://www.w3.org/2000/svg">
<path d="M10.5 0.5625C5.28125 0.5625 1.0625 4.78125 1.0625 10C1.0625 15.2188 5.28125 19.4688 10.5 19.4688C15.7188 19.4688 19.9688 15.2188 19.9688 10C19.9688 4.78125 15.7188 0.5625 10.5 0.5625ZM10.5 18.0625C6.0625 18.0625 2.46875 14.4375 2.46875 10C2.46875 5.5625 6.0625 1.96875 10.5 1.96875C14.9375 1.96875 18.5625 5.59375 18.5625 10.0312C18.5625 14.4375 14.9375 18.0625 10.5 18.0625Z" fill="#122F1D"/>
<path d="M14.2188 7.4375L10.5 11.0938L6.78125 7.4375C6.5 7.15625 6.0625 7.15625 5.78125 7.4375C5.5 7.71875 5.5 8.15625 5.78125 8.4375L10 12.5938C10.125 12.7188 10.3125 12.7813 10.5 12.7813C10.6875 12.7813 10.8437 12.7188 11 12.5938L15.2187 8.4375C15.5 8.15625 15.5 7.71875 15.2187 7.4375C14.9687 7.15625 14.5 7.15625 14.2188 7.4375Z" fill="#122F1D"/>
</svg>
