<svg width="20" height="20" viewBox="0 0 20 20" fill="none" xmlns="http://www.w3.org/2000/svg">
<g clip-path="url(#clip0_435_4588)">
<path d="M19.3438 7.5625L16.625 1.34375C16.5 1.03125 16.25 0.8125 15.9688 0.6875C15.9063 0.65625 15.875 0.625 15.8125 0.59375C15.7188 0.5625 15.625 0.5625 15.5 0.5625C15.4688 0.5625 15.4375 0.5625 15.4375 0.5625H4.59375C4.09375 0.5625 3.625 0.875 3.40625 1.34375L0.65625 7.5625C0.46875 8 0.53125 8.5 0.8125 8.875L8.96875 18.9375C9.1875 19.2188 9.5 19.4062 9.84375 19.4375C9.90625 19.4375 9.9375 19.4688 10 19.4688C10.4063 19.4688 10.7813 19.2812 11.0313 18.9688L19.1875 8.9375L19.2188 8.90625C19.4688 8.5 19.5313 8 19.3438 7.5625ZM17.875 7.71875H14.1563L15.75 2.90625L17.875 7.71875ZM13.0625 6.53125L10.9375 1.9375H14.5938L13.0625 6.53125ZM10 3.28125L12.0625 7.71875H7.9375L10 3.28125ZM6.875 6.625L5.125 1.9375H9.0625L6.875 6.625ZM12.25 9.125L10 16.375L7.78125 9.125H12.25ZM8.4375 16.0625L2.8125 9.125H6.3125L8.4375 16.0625ZM13.7188 9.125H17.1875L11.5625 16.0312L13.7188 9.125ZM4.09375 3.21875L5.8125 7.6875H2.125L4.09375 3.21875Z" fill="#EAEAEA"/>
</g>
<defs>
<clipPath id="clip0_435_4588">
<rect width="20" height="20" fill="white"/>
</clipPath>
</defs>
</svg>
