<svg width="32" height="24" viewBox="0 0 32 24" fill="#6B0D10" xmlns="http://www.w3.org/2000/svg">
<path d="M28 0.799805H3.99998C2.29998 0.799805 0.849976 2.1998 0.849976 3.9498V20.1498C0.849976 21.8498 2.24998 23.2998 3.99998 23.2998H28C29.7 23.2998 31.15 21.8998 31.15 20.1498V3.8998C31.15 2.1998 29.7 0.799805 28 0.799805ZM28 3.0498C28.05 3.0498 28.1 3.0498 28.15 3.0498L16 10.8498L3.84998 3.0498C3.89998 3.0498 3.94998 3.0498 3.99998 3.0498H28ZM28 20.9498H3.99998C3.49998 20.9498 3.09998 20.5498 3.09998 20.0498V5.2498L14.8 12.7498C15.15 12.9998 15.55 13.0998 15.95 13.0998C16.35 13.0998 16.75 12.9998 17.1 12.7498L28.8 5.2498V20.0998C28.9 20.5998 28.5 20.9498 28 20.9498Z"/>
</svg>
