<svg width="12" height="13" viewBox="0 0 12 13" fill="none" xmlns="http://www.w3.org/2000/svg">
<g clip-path="url(#clip0_689_3039)">
<path d="M11.6623 6.31254C11.5498 3.40629 9.1686 1.02504 6.2436 0.912537C4.6686 0.856287 3.2061 1.41879 2.06235 2.48754C0.937354 3.57504 0.318604 5.01879 0.318604 6.57504C0.318604 9.14379 2.0436 11.3938 4.5186 12.05C4.5936 12.0688 4.64985 12.0688 4.72485 12.0688C4.8936 12.0688 5.06235 12.0125 5.1936 11.9C5.3811 11.75 5.4936 11.525 5.4936 11.2813V10.6813C5.4936 10.5125 5.51235 9.80004 5.51235 9.66879C5.5311 9.57504 5.54985 9.50004 5.6061 9.44379C5.7186 9.29379 5.73735 9.08754 5.66235 8.91879C5.58735 8.76879 5.43735 8.65629 5.2686 8.65629C5.1561 8.63754 5.02485 8.61879 4.9311 8.58129C4.7811 8.54379 4.64985 8.48754 4.49985 8.41254C4.38735 8.35629 4.2936 8.26254 4.19985 8.15004C4.1436 8.09379 4.0686 7.96254 3.9936 7.71879C3.9186 7.49379 3.89985 7.26879 3.89985 7.02504C3.89985 6.68754 3.9936 6.42504 4.19985 6.20004C4.31235 6.06879 4.34985 5.90004 4.27485 5.75004C4.2186 5.61879 4.19985 5.46879 4.23735 5.28129C4.49985 5.37504 4.57485 5.43129 4.5936 5.45004L4.61235 5.46879C4.68735 5.50629 4.7436 5.54379 4.79985 5.58129L4.8561 5.61879C4.94985 5.67504 5.0811 5.69379 5.1936 5.65629C5.4936 5.58129 5.81235 5.52504 6.11235 5.52504C6.4311 5.52504 6.7311 5.56254 7.0311 5.65629C7.1436 5.69379 7.2561 5.67504 7.3686 5.61879L7.57485 5.48754C7.7061 5.41254 7.8561 5.33754 7.98735 5.28129C8.02485 5.45004 8.0061 5.61879 7.94985 5.76879C7.8936 5.91879 7.9311 6.08754 8.02485 6.20004C8.2311 6.42504 8.32485 6.68754 8.32485 7.02504C8.32485 7.28754 8.28735 7.51254 8.2311 7.70004C8.1561 7.88754 8.09985 8.03754 8.0061 8.15004C7.9311 8.24379 7.8186 8.31879 7.6686 8.41254C7.5186 8.48754 7.38735 8.54379 7.23735 8.58129C7.1436 8.60004 7.01235 8.63754 6.8811 8.65629H6.86235C6.6936 8.69379 6.56235 8.80629 6.48735 8.95629C6.4311 9.10629 6.4311 9.27504 6.5436 9.42504C6.6186 9.51879 6.6561 9.66879 6.6561 9.83754V11.2438C6.6561 11.4875 6.7686 11.7313 6.97485 11.8625C7.1811 12.0125 7.42485 12.05 7.64985 11.975C10.1623 11.2625 11.7936 8.90004 11.6623 6.31254ZM7.53735 11.1875V9.87504C7.53735 9.70629 7.5186 9.55629 7.4811 9.42504H7.49985C7.68735 9.36879 7.8936 9.29379 8.09985 9.18129C8.09985 9.18129 8.1186 9.18129 8.1186 9.16254C8.3436 9.03129 8.5311 8.88129 8.66235 8.71254C8.84985 8.50629 8.9436 8.24379 9.03735 8.00004C9.1311 7.71879 9.1686 7.41879 9.1686 7.04379C9.1686 6.59379 9.03735 6.18129 8.7936 5.84379C8.8686 5.48754 8.8311 5.09379 8.66235 4.68129C8.62485 4.56879 8.51235 4.47504 8.39985 4.43754C8.1936 4.36254 7.9686 4.40004 7.6686 4.49379C7.4811 4.56879 7.2936 4.66254 7.1061 4.75629L7.0686 4.81254C6.4311 4.66254 5.7561 4.66254 5.1186 4.81254C5.09985 4.79379 5.0811 4.79379 5.0436 4.77504C4.9311 4.70004 4.7811 4.62504 4.53735 4.53129C4.23735 4.40004 3.9936 4.36254 3.7686 4.43754C3.6561 4.47504 3.5436 4.56879 3.5061 4.70004C3.3561 5.13129 3.3186 5.50629 3.3936 5.86254C3.14985 6.20004 3.0186 6.61254 3.0186 7.06254C3.0186 7.40004 3.0561 7.70004 3.14985 8.00004C3.2436 8.30004 3.3561 8.54379 3.5061 8.71254C3.67485 8.91879 3.86235 9.06879 4.0686 9.18129C4.2561 9.29379 4.46235 9.36879 4.6686 9.42504C4.68735 9.42504 4.68735 9.42504 4.7061 9.42504C4.68735 9.48129 4.68735 9.55629 4.6686 9.61254C4.6686 9.63129 4.6686 9.65004 4.6686 9.65004C4.6686 9.65004 4.6686 9.89379 4.6686 10.1563C4.2561 10.0063 3.9186 9.80004 3.6186 9.50004C3.3936 9.23754 3.1311 8.99379 2.99985 8.91879C2.73735 8.78754 2.5686 9.05004 2.6061 9.20004C2.66235 9.38754 2.92485 9.50004 3.0936 9.65004C3.26235 9.81879 3.29985 10.0438 3.41235 10.2313C3.5811 10.475 4.16235 10.7938 4.64985 10.7938V11.225C2.6061 10.6438 1.1811 8.75004 1.1811 6.59379C1.1811 5.26254 1.7061 4.02504 2.66235 3.10629C3.56235 2.22504 4.76235 1.75629 6.0186 1.75629C6.07485 1.75629 6.14985 1.75629 6.2061 1.75629C8.69985 1.85004 10.7248 3.87504 10.8186 6.35004C10.9311 8.52504 9.5811 10.5125 7.53735 11.1875Z" fill="#FDE8E9"/>
</g>
<defs>
<clipPath id="clip0_689_3039">
<rect width="12" height="12" fill="white" transform="translate(0 0.5)"/>
</clipPath>
</defs>
</svg>
