<svg width="12" height="13" viewBox="0 0 12 13" fill="none" xmlns="http://www.w3.org/2000/svg">
<g clip-path="url(#clip0_1673_9486)">
<path d="M6 0.837402C2.8125 0.837402 0.1875 3.4249 0.1875 6.6499C0.1875 9.1999 1.85625 11.3749 4.18125 12.1624C4.48125 12.2187 4.575 12.0312 4.575 11.8999C4.575 11.7687 4.575 11.3937 4.55625 10.8874C2.94375 11.2624 2.60625 10.0999 2.60625 10.0999C2.34375 9.44365 1.95 9.25615 1.95 9.25615C1.425 8.88115 1.96875 8.88115 1.96875 8.88115C2.55 8.8999 2.86875 9.48115 2.86875 9.48115C3.375 10.3812 4.2375 10.1187 4.55625 9.9499C4.6125 9.5749 4.7625 9.3124 4.93125 9.1624C3.65625 9.03115 2.2875 8.5249 2.2875 6.3124C2.2875 5.6749 2.53125 5.16865 2.8875 4.7749C2.83125 4.64365 2.625 4.04365 2.94375 3.2374C2.94375 3.2374 3.45 3.0874 4.55625 3.8374C5.025 3.70615 5.5125 3.63115 6.01875 3.63115C6.525 3.63115 7.03125 3.6874 7.48125 3.8374C8.5875 3.10615 9.075 3.2374 9.075 3.2374C9.39375 4.0249 9.20625 4.64365 9.13125 4.7749C9.50625 5.16865 9.73125 5.69365 9.73125 6.3124C9.73125 8.5249 8.3625 9.03115 7.0875 9.1624C7.29375 9.3499 7.48125 9.7249 7.48125 10.2499C7.48125 11.0374 7.4625 11.6562 7.4625 11.8437C7.4625 11.9937 7.575 12.1624 7.85625 12.1062C10.1438 11.3374 11.8125 9.18115 11.8125 6.6124C11.7937 3.4249 9.1875 0.837402 6 0.837402Z" fill="#FDE8E9"/>
</g>
<defs>
<clipPath id="clip0_1673_9486">
<rect width="12" height="12" fill="white" transform="translate(0 0.5)"/>
</clipPath>
</defs>
</svg>
