<svg width="20" height="20" viewBox="0 0 24 24" fill="none" xmlns="http://www.w3.org/2000/svg">
<path d="M21.5125 23.7062H16.6C15.4 23.7062 14.3875 22.7313 14.3875 21.4938V17.5187C14.3875 17.2188 14.1625 16.9938 13.8625 16.9938H10.8625C10.5625 16.9938 10.3375 17.2188 10.3375 17.5187V21.4938C10.3375 22.7313 9.3625 23.7062 8.125 23.7062H3.2125C2.0125 23.7062 1 22.7313 1 21.4938V8.85625C1 8.21875 1.3 7.65625 1.825 7.31875L11.3875 1.28125C11.9875 0.90625 12.7375 0.90625 13.3 1.28125L22.8625 7.35625C23.3875 7.69375 23.6875 8.25625 23.6875 8.89375V21.4938C23.725 22.6938 22.7125 23.7062 21.5125 23.7062ZM10.8625 15.3063H13.8625C15.1 15.3063 16.075 16.2812 16.075 17.5187V21.4938C16.075 21.7938 16.3 22.0187 16.6 22.0187H21.5125C21.8125 22.0187 22.0375 21.7938 22.0375 21.4938V8.85625C22.0375 8.81875 22 8.78125 22 8.74375L12.4 2.70625C12.3625 2.66875 12.325 2.66875 12.2875 2.70625L2.7625 8.74375C2.725 8.78125 2.6875 8.81875 2.6875 8.85625V21.4938C2.6875 21.7938 2.9125 22.0187 3.2125 22.0187H8.125C8.425 22.0187 8.65 21.7938 8.65 21.4938V17.5187C8.65 16.3187 9.625 15.3063 10.8625 15.3063Z" fill="#FFFFFF"/>
</svg>
