<svg width="12" height="13" viewBox="0 0 12 13" fill="none" xmlns="http://www.w3.org/2000/svg">
<path d="M3.46973 3.00001C3.46959 3.26523 3.36411 3.51953 3.17648 3.70697C2.98885 3.89441 2.73444 3.99964 2.46923 3.99951C2.20401 3.99938 1.94971 3.8939 1.76227 3.70626C1.57482 3.51863 1.46959 3.26423 1.46973 2.99901C1.46986 2.7338 1.57534 2.47949 1.76297 2.29205C1.9506 2.10461 2.20501 1.99938 2.47023 1.99951C2.73544 1.99964 2.98974 2.10513 3.17719 2.29276C3.36463 2.48039 3.46986 2.7348 3.46973 3.00001V3.00001ZM3.49973 4.74001H1.49973V11H3.49973V4.74001ZM6.65973 4.74001H4.66973V11H6.63973V7.71501C6.63973 5.88501 9.02473 5.71501 9.02473 7.71501V11H10.9997V7.03501C10.9997 3.95001 7.46973 4.06501 6.63973 5.58001L6.65973 4.74001V4.74001Z" fill="#FDE8E9"/>
</svg>
