<svg width="30" height="31" viewBox="0 0 30 31" fill="none" xmlns="http://www.w3.org/2000/svg">
<path d="M28.45 8.7L16.9 0.6C15.75 -0.2 14.25 -0.2 13.1 0.6L1.55002 8.7C0.650024 9.3 0.150024 10.35 0.150024 11.4V26.75C0.150024 28.55 1.65002 30.05 3.45002 30.05H26.6C28.4 30.05 29.9 28.55 29.9 26.75V11.4C29.9 10.3 29.35 9.3 28.45 8.7ZM19.55 27.75H10.45V22C10.45 21.65 10.6 21.35 10.9 21.15L14.4 18.7C14.75 18.45 15.25 18.45 15.6 18.7L19.1 21.15C19.4 21.35 19.55 21.65 19.55 22V27.75ZM27.65 26.7C27.65 27.3 27.2 27.75 26.6 27.75H21.8V22C21.8 20.95 21.3 19.9 20.4 19.3L16.9 16.85C15.75 16.05 14.25 16.05 13.1 16.85L9.60003 19.3C8.70003 19.9 8.20002 20.95 8.20002 22V27.75H3.40002C2.80002 27.75 2.35002 27.3 2.35002 26.7V11.4C2.35002 11.05 2.50002 10.75 2.80002 10.55L14.4 2.4C14.6 2.25 14.8 2.2 15 2.2C15.2 2.2 15.4 2.25 15.6 2.4L27.2 10.5C27.5 10.7 27.65 11 27.65 11.35V26.7Z" fill="#183F27"/>
</svg>
