<svg width="32" height="32" viewBox="0 0 32 32" fill="none" xmlns="http://www.w3.org/2000/svg">
<path d="M24.3 31.1504C22.95 31.1504 21.4 30.8004 19.7 30.1504C16.3 28.8004 12.55 26.2004 9.20003 22.8504C5.85003 19.5004 3.25003 15.7504 1.90003 12.3004C0.400031 8.60043 0.550031 5.55043 2.30003 3.85043C2.35003 3.80043 2.45003 3.75043 2.50003 3.70043L6.70003 1.20043C7.75003 0.60043 9.10003 0.90043 9.80003 1.90043L12.75 6.30043C13.45 7.35043 13.15 8.75043 12.15 9.45043L10.35 10.7004C11.65 12.8004 15.35 17.9504 21.25 21.6504L22.35 20.0504C23.2 18.8504 24.55 18.5004 25.65 19.2504L30.05 22.2004C31.05 22.9004 31.35 24.2504 30.75 25.3004L28.25 29.5004C28.2 29.6004 28.15 29.6504 28.1 29.7004C27.2 30.6504 25.9 31.1504 24.3 31.1504ZM3.80003 5.55043C2.85003 6.60043 2.90003 8.75043 4.00003 11.5004C5.25003 14.6504 7.65003 18.1004 10.8 21.2504C13.9 24.3504 17.4 26.7504 20.5 28.0004C23.2 29.1004 25.35 29.1504 26.45 28.2004L28.85 24.1004C28.85 24.0504 28.85 24.0504 28.85 24.0004L24.45 21.0504C24.45 21.0504 24.35 21.1004 24.25 21.2504L23.15 22.8504C22.45 23.8504 21.1 24.1504 20.1 23.5004C13.8 19.6004 9.90003 14.1504 8.50003 11.9504C7.85003 10.9004 8.10003 9.55043 9.10003 8.85043L10.9 7.60043V7.55043L7.95003 3.15043C7.95003 3.10043 7.90003 3.10043 7.85003 3.15043L3.80003 5.55043Z" fill="#183F27"/>
<path d="M29.3 14.2505C28.7 14.2505 28.25 13.8005 28.2 13.2005C27.8 8.15052 23.65 4.10052 18.55 3.75052C17.95 3.70052 17.45 3.20052 17.5 2.55052C17.55 1.95052 18.05 1.45052 18.7 1.50052C24.9 1.90052 29.95 6.80052 30.45 13.0005C30.5 13.6005 30.05 14.1505 29.4 14.2005C29.4 14.2505 29.35 14.2505 29.3 14.2505Z" fill="#183F27"/>
<path d="M24.35 14.7007C23.8 14.7007 23.3 14.3007 23.25 13.7007C22.95 11.0007 20.85 8.90067 18.15 8.55067C17.55 8.50067 17.1 7.90067 17.15 7.30067C17.2 6.70067 17.8 6.25067 18.4 6.30067C22.15 6.75067 25.05 9.65067 25.5 13.4007C25.55 14.0007 25.15 14.5507 24.5 14.6507C24.4 14.7007 24.35 14.7007 24.35 14.7007Z" fill="#183F27"/>
</svg>
