<svg width="20" height="20" viewBox="0 0 20 20" fill="none" xmlns="http://www.w3.org/2000/svg">
<g clip-path="url(#clip0_550_260)">
<path d="M15.1871 19.0312C12.6558 19.0312 9.06208 17.2187 5.74958 14.0937C1.24958 9.78124 -0.656665 4.96874 1.34333 2.84374C1.43708 2.74999 1.56208 2.65624 1.68708 2.59374L4.21833 1.15624C4.87458 0.781244 5.68708 0.968744 6.12458 1.59374L7.96833 4.21874C8.18708 4.53124 8.28083 4.90624 8.18708 5.28124C8.12458 5.62499 7.90583 5.93749 7.59333 6.15624L6.49958 6.87499C7.34333 8.09374 9.62458 11.125 13.2496 13.2812C13.2808 13.3125 13.3121 13.2812 13.3121 13.2812L14.0933 12.2187C14.5308 11.625 15.3746 11.4687 16.0308 11.875L18.7808 13.625C19.4371 14.0312 19.6246 14.875 19.2183 15.5312L17.7183 17.9375C17.6246 18.0625 17.5308 18.1875 17.4371 18.2812C16.8746 18.7812 16.0933 19.0312 15.1871 19.0312ZM4.93708 2.37499C4.90583 2.37499 4.93708 2.37499 4.93708 2.37499L2.37458 3.81249C1.18708 5.09374 2.65583 9.18749 6.74958 13.0625C10.9058 17 15.1871 18.4062 16.5621 17.2187L18.0621 14.8125L15.3121 13.0625C15.2808 13.0625 15.2496 13.0625 15.2496 13.0625L14.4683 14.125C14.0308 14.7187 13.1871 14.875 12.5621 14.5C8.65583 12.1562 6.21833 8.90624 5.34333 7.62499C5.12458 7.31249 5.06208 6.93749 5.12458 6.59374C5.18708 6.21874 5.40583 5.90624 5.71833 5.71874L6.81208 4.99999L4.99958 2.40624C4.96833 2.40624 4.93708 2.37499 4.93708 2.37499Z" fill="#08160E"/>
</g>
<defs>
<clipPath id="clip0_550_260">
<rect width="20" height="20" fill="white"/>
</clipPath>
</defs>
</svg>
