<svg width="20" height="20" viewBox="0 0 20 20" fill="none" xmlns="http://www.w3.org/2000/svg">
<path d="M15.1874 19.0313C12.6562 19.0313 9.06245 17.2188 5.74995 14.0938C1.24995 9.78127 -0.656299 4.96878 1.3437 2.84378C1.43745 2.75003 1.56245 2.65628 1.68745 2.59378L4.2187 1.15627C4.87495 0.781275 5.68745 0.968775 6.12495 1.59377L7.9687 4.21877C8.18745 4.53127 8.2812 4.90627 8.18745 5.28127C8.12495 5.62502 7.9062 5.93753 7.5937 6.15628L6.49995 6.87502C7.3437 8.09377 9.62495 11.125 13.2499 13.2813C13.2812 13.3125 13.3124 13.2813 13.3124 13.2813L14.0937 12.2188C14.5312 11.625 15.3749 11.4688 16.0312 11.875L18.7812 13.625C19.4374 14.0313 19.6249 14.875 19.2187 15.5313L17.7187 17.9375C17.6249 18.0625 17.5312 18.1875 17.4374 18.2813C16.8749 18.7813 16.0937 19.0313 15.1874 19.0313ZM4.93745 2.37502C4.9062 2.37502 4.93745 2.37502 4.93745 2.37502L2.37495 3.81252C1.18745 5.09377 2.6562 9.18752 6.74995 13.0625C10.9062 17 15.1874 18.4063 16.5624 17.2188L18.0624 14.8125L15.3124 13.0625C15.2812 13.0625 15.2499 13.0625 15.2499 13.0625L14.4687 14.125C14.0312 14.7188 13.1874 14.875 12.5624 14.5C8.6562 12.1563 6.2187 8.90627 5.3437 7.62502C5.12495 7.31252 5.06245 6.93753 5.12495 6.59377C5.18745 6.21877 5.4062 5.90627 5.7187 5.71877L6.81245 5.00002L4.99995 2.40627C4.9687 2.40627 4.93745 2.37502 4.93745 2.37502Z" fill="#08160E"/>
</svg>
