<svg width="20" height="20" viewBox="0 0 20 20" fill="none" xmlns="http://www.w3.org/2000/svg">
<path d="M17.3437 4.59375H14.75V3.65625C14.75 2.5 13.8125 1.53125 12.625 1.53125H2.65625C1.5 1.53125 0.53125 2.46875 0.53125 3.65625V10.0312C0.53125 11.1875 1.46875 12.125 2.625 12.1562C2.3125 13.25 2.03125 13.9687 1.8125 14.2812C1.625 14.5312 1.65625 14.875 1.875 15.125C2 15.2812 2.21875 15.375 2.40625 15.375C2.5 15.375 2.59375 15.3437 2.6875 15.3125C3.6875 14.875 5.75 13.375 6.6875 12.1562H7.1875C7.1875 12.4062 7.1875 12.6875 7.1875 13.0937C7.1875 14.25 8.125 15.2187 9.3125 15.2187H13.3125C14.2812 16.4375 16.3125 17.9375 17.3125 18.375C17.4063 18.4375 17.5 18.4375 17.5937 18.4375C17.8125 18.4375 18.0312 18.3437 18.1562 18.1562C18.3437 17.9062 18.3437 17.5312 18.125 17.2812C17.7812 16.875 17.5937 15.9062 17.4375 15.1562C18.5625 15.0937 19.4375 14.1562 19.4375 13.0312V6.71875C19.4688 5.5625 18.5 4.59375 17.3437 4.59375ZM6.34375 10.75C6.09375 10.75 5.875 10.875 5.75 11.0625C5.4375 11.5625 4.65625 12.2812 3.875 12.9062C4 12.4687 4.125 12.0312 4.21875 11.625C4.28125 11.4062 4.21875 11.1875 4.09375 11C3.96875 10.8125 3.75 10.7187 3.53125 10.7187H2.65625C2.25 10.7187 1.9375 10.4062 1.9375 10V3.65625C1.9375 3.25 2.25 2.9375 2.65625 2.9375H12.5937C13 2.9375 13.3125 3.25 13.3125 3.65625V10.0312C13.3125 10.4375 13 10.75 12.5937 10.75H6.34375V10.75ZM18.0625 13.0625C18.0625 13.4687 17.75 13.7812 17.3437 13.7812H16.5937C16.375 13.7812 16.1875 13.875 16.0312 14.0625C15.875 14.25 15.8438 14.4375 15.9063 14.6562C15.9375 14.8125 16 15.0312 16.0312 15.2812C16.0625 15.5312 16.125 15.7812 16.1875 16.0312C15.375 15.4062 14.5937 14.6875 14.25 14.1562C14.125 13.9687 13.9063 13.8437 13.6562 13.8437H9.28125C8.875 13.8437 8.5625 13.5312 8.5625 13.125C8.5625 12.7812 8.5625 12.4375 8.5625 12.1875H12.5937C13.75 12.1875 14.7187 11.25 14.7187 10.0625V6H17.3125C17.7188 6 18.0312 6.3125 18.0312 6.71875V13.0625H18.0625Z" fill="#BE161D"/>
<path d="M3.84375 6.21875H3.8125C3.4375 6.21875 3.09375 6.53125 3.09375 6.9375C3.09375 7.34375 3.40625 7.65625 3.8125 7.65625H3.84375C4.21875 7.65625 4.5625 7.34375 4.5625 6.9375C4.5625 6.53125 4.25 6.21875 3.84375 6.21875Z" fill="#BE161D"/>
<path d="M7.59375 6.21875H7.5625C7.1875 6.21875 6.84375 6.53125 6.84375 6.9375C6.84375 7.34375 7.15625 7.65625 7.5625 7.65625H7.59375C7.96875 7.65625 8.3125 7.34375 8.3125 6.9375C8.3125 6.53125 8 6.21875 7.59375 6.21875Z" fill="#BE161D"/>
<path d="M11.3437 6.21875H11.3125C10.9375 6.21875 10.5938 6.53125 10.5938 6.9375C10.5938 7.34375 10.9062 7.65625 11.3125 7.65625H11.3437C11.7187 7.65625 12.0625 7.34375 12.0625 6.9375C12.0625 6.53125 11.75 6.21875 11.3437 6.21875Z" fill="#BE161D"/>
</svg>
