<svg width="20" height="20" viewBox="0 0 20 20" fill="none" xmlns="http://www.w3.org/2000/svg">
<path d="M18.625 8.78125C18.2812 8.375 17.875 8.03125 17.4062 7.8125C17.8438 7.375 18.0938 6.78125 18.0938 6.125C18.0938 4.8125 17.0312 3.75 15.7188 3.75C14.4062 3.75 13.3438 4.8125 13.3438 6.125C13.3438 6.78125 13.625 7.375 14.0312 7.8125C13.6562 8 13.3438 8.25 13.0312 8.5625C12.6562 8.1875 12.2188 7.875 11.7188 7.65625C12.3125 7.15625 12.6875 6.40625 12.6875 5.59375C12.6875 4.09375 11.4688 2.875 9.96875 2.875C8.46875 2.875 7.25 4.09375 7.25 5.59375C7.25 6.4375 7.625 7.15625 8.21875 7.65625C7.75 7.875 7.3125 8.15625 6.90625 8.5625C6.59375 8.25 6.28125 8 5.90625 7.8125C6.34375 7.375 6.59375 6.78125 6.59375 6.125C6.59375 4.8125 5.53125 3.75 4.21875 3.75C2.90625 3.75 1.84375 4.8125 1.84375 6.125C1.84375 6.78125 2.125 7.375 2.53125 7.8125C2.09375 8.03125 1.65625 8.375 1.3125 8.78125C0.59375 9.625 0.1875 10.8125 0.15625 12.0938C0.15625 12.375 0.3125 12.625 0.53125 12.7188C0.96875 12.9375 2.5 13.6562 4.1875 13.6562C4.65625 13.6562 5.15625 13.5938 5.625 13.5C5.8125 13.5938 6.0625 13.7187 6.40625 13.8438C6.59375 15.6875 8.125 17.1562 10 17.1562C11.8438 17.1562 13.375 15.6875 13.5 13.875C13.875 13.7188 14.1562 13.5938 14.3125 13.5C14.8125 13.5938 15.2812 13.6562 15.75 13.6562C17.5625 13.6562 19.0312 12.9375 19.4062 12.7188C19.625 12.5938 19.7812 12.3438 19.7812 12.0938C19.75 10.8125 19.3438 9.625 18.625 8.78125ZM15.7188 5.15625C16.25 5.15625 16.6875 5.59375 16.6875 6.125C16.6875 6.65625 16.25 7.09375 15.7188 7.09375C15.1875 7.09375 14.75 6.65625 14.75 6.125C14.7812 5.59375 15.1875 5.15625 15.7188 5.15625ZM10 4.25C10.7188 4.25 11.3125 4.84375 11.3125 5.5625C11.3125 6.28125 10.7188 6.875 10 6.875C9.28125 6.875 8.6875 6.28125 8.6875 5.5625C8.6875 4.84375 9.28125 4.25 10 4.25ZM4.28125 5.15625C4.8125 5.15625 5.25 5.59375 5.25 6.125C5.25 6.65625 4.8125 7.09375 4.28125 7.09375C3.75 7.09375 3.3125 6.65625 3.3125 6.125C3.3125 5.59375 3.75 5.15625 4.28125 5.15625ZM1.65625 11.6562C1.75 10.875 2.03125 10.1875 2.4375 9.6875C2.90625 9.125 3.5625 8.8125 4.25 8.8125C4.9375 8.8125 5.5625 9.125 6.0625 9.6875C5.65625 10.4062 5.375 11.25 5.28125 12.1562C4.9375 12.2188 4.59375 12.25 4.25 12.25C3.25 12.25 2.21875 11.9062 1.65625 11.6562ZM10 15.75C8.84375 15.75 7.90625 14.8125 7.90625 13.6562C7.90625 12.5 8.84375 11.5625 10 11.5625C11.1562 11.5625 12.0938 12.5 12.0938 13.6562C12.0938 14.8125 11.1562 15.75 10 15.75ZM10 10.1562C8.5 10.1562 7.25 11.0938 6.75 12.4062C6.71875 12.4062 6.71875 12.375 6.6875 12.375C6.78125 11.4687 7.03125 10.6875 7.5 10.0312C7.5625 9.9375 7.625 9.875 7.6875 9.78125C8.3125 9.0625 9.125 8.65625 10 8.65625C10.875 8.65625 11.7188 9.0625 12.3125 9.78125C12.375 9.875 12.4375 9.9375 12.5 10.0312C12.5625 10.125 12.625 10.2187 12.6562 10.3125C12.6875 10.3438 12.6875 10.375 12.7188 10.4062C12.75 10.4687 12.7812 10.5312 12.8125 10.5938C12.8438 10.625 12.8438 10.6562 12.875 10.7187C12.9062 10.7812 12.9375 10.8438 12.9688 10.9062C13 10.9375 13 11 13.0312 11.0312C13.0625 11.0938 13.0625 11.1562 13.0938 11.2188C13.0938 11.25 13.125 11.3125 13.125 11.3438C13.1562 11.4062 13.1562 11.4688 13.1875 11.5312C13.1875 11.5625 13.2188 11.625 13.2188 11.6562C13.2188 11.7188 13.25 11.8125 13.25 11.875C13.25 11.9062 13.2812 11.9688 13.2812 12C13.2812 12.0938 13.3125 12.1562 13.3125 12.25C13.3125 12.2812 13.3125 12.3125 13.3125 12.3438V12.375C13.2812 12.375 13.2813 12.4062 13.25 12.4062C12.7812 11.125 11.5 10.1562 10 10.1562ZM15.7188 12.25C15.4062 12.25 15.0625 12.2188 14.6875 12.1562C14.6875 12.125 14.6875 12.125 14.6875 12.0938C14.6562 11.9062 14.625 11.75 14.5938 11.5625C14.5938 11.5 14.5625 11.4688 14.5625 11.4062C14.5312 11.2188 14.4688 11.0312 14.4062 10.8438C14.3437 10.6562 14.2813 10.4688 14.1875 10.3125C14.1562 10.2812 14.1562 10.2187 14.125 10.1875C14.0625 10.0312 13.9688 9.875 13.9062 9.75C13.9062 9.71875 13.875 9.71875 13.875 9.6875C14.3438 9.125 15 8.8125 15.6875 8.8125C16.375 8.8125 17.0312 9.125 17.5 9.6875C17.9375 10.2188 18.2188 10.9062 18.2812 11.6875C17.8125 11.9062 16.8438 12.25 15.7188 12.25Z" fill="#08160E"/>
<path d="M10.3751 12.5313L9.5938 13.2813L9.4688 13.1563C9.18755 12.875 8.75005 12.875 8.4688 13.125C8.18755 13.4063 8.18755 13.8438 8.43755 14.125L9.0313 14.75C9.1563 14.875 9.3438 14.9688 9.5313 14.9688C9.7188 14.9688 9.9063 14.9063 10.0313 14.75L11.3126 13.4688C11.5938 13.1875 11.5938 12.75 11.3126 12.4688C11.0938 12.25 10.6251 12.25 10.3751 12.5313Z" fill="#08160E"/>
</svg>
