<svg width="56" height="71" viewBox="0 0 56 71" fill="none" xmlns="http://www.w3.org/2000/svg">
<ellipse cx="54.3029" cy="69.5831" rx="0.820188" ry="0.820188" transform="rotate(180 54.3029 69.5831)" fill="#ED1C24"/>
<ellipse cx="46.6625" cy="69.5831" rx="0.820188" ry="0.820188" transform="rotate(180 46.6625 69.5831)" fill="#ED1C24"/>
<ellipse cx="39.0221" cy="69.5831" rx="0.820188" ry="0.820188" transform="rotate(180 39.0221 69.5831)" fill="#ED1C24"/>
<ellipse cx="31.3817" cy="69.5831" rx="0.820188" ry="0.820188" transform="rotate(180 31.3817 69.5831)" fill="#ED1C24"/>
<ellipse cx="23.7413" cy="69.5831" rx="0.820188" ry="0.820188" transform="rotate(180 23.7413 69.5831)" fill="#ED1C24"/>
<ellipse cx="16.101" cy="69.5831" rx="0.820188" ry="0.820188" transform="rotate(180 16.101 69.5831)" fill="#ED1C24"/>
<ellipse cx="8.46057" cy="69.5831" rx="0.820188" ry="0.820188" transform="rotate(180 8.46057 69.5831)" fill="#ED1C24"/>
<ellipse cx="0.820193" cy="69.5831" rx="0.820188" ry="0.820188" transform="rotate(180 0.820193 69.5831)" fill="#ED1C24"/>
<ellipse cx="54.3029" cy="61.943" rx="0.820188" ry="0.820188" transform="rotate(180 54.3029 61.943)" fill="#ED1C24"/>
<ellipse cx="46.6625" cy="61.943" rx="0.820188" ry="0.820188" transform="rotate(180 46.6625 61.943)" fill="#ED1C24"/>
<ellipse cx="39.0221" cy="61.943" rx="0.820188" ry="0.820188" transform="rotate(180 39.0221 61.943)" fill="#ED1C24"/>
<ellipse cx="31.3817" cy="61.943" rx="0.820188" ry="0.820188" transform="rotate(180 31.3817 61.943)" fill="#ED1C24"/>
<ellipse cx="23.7413" cy="61.943" rx="0.820188" ry="0.820188" transform="rotate(180 23.7413 61.943)" fill="#ED1C24"/>
<ellipse cx="16.101" cy="61.943" rx="0.820188" ry="0.820188" transform="rotate(180 16.101 61.943)" fill="#ED1C24"/>
<ellipse cx="8.46057" cy="61.943" rx="0.820188" ry="0.820188" transform="rotate(180 8.46057 61.943)" fill="#ED1C24"/>
<ellipse cx="0.820193" cy="61.943" rx="0.820188" ry="0.820188" transform="rotate(180 0.820193 61.943)" fill="#ED1C24"/>
<ellipse cx="54.3029" cy="54.3024" rx="0.820188" ry="0.820188" transform="rotate(180 54.3029 54.3024)" fill="#ED1C24"/>
<ellipse cx="46.6625" cy="54.3024" rx="0.820188" ry="0.820188" transform="rotate(180 46.6625 54.3024)" fill="#ED1C24"/>
<ellipse cx="39.0221" cy="54.3024" rx="0.820188" ry="0.820188" transform="rotate(180 39.0221 54.3024)" fill="#ED1C24"/>
<ellipse cx="31.3817" cy="54.3024" rx="0.820188" ry="0.820188" transform="rotate(180 31.3817 54.3024)" fill="#ED1C24"/>
<ellipse cx="23.7413" cy="54.3024" rx="0.820188" ry="0.820188" transform="rotate(180 23.7413 54.3024)" fill="#ED1C24"/>
<ellipse cx="16.101" cy="54.3024" rx="0.820188" ry="0.820188" transform="rotate(180 16.101 54.3024)" fill="#ED1C24"/>
<ellipse cx="8.46057" cy="54.3024" rx="0.820188" ry="0.820188" transform="rotate(180 8.46057 54.3024)" fill="#ED1C24"/>
<ellipse cx="0.820193" cy="54.3024" rx="0.820188" ry="0.820188" transform="rotate(180 0.820193 54.3024)" fill="#ED1C24"/>
<ellipse cx="54.3029" cy="46.6622" rx="0.820188" ry="0.820188" transform="rotate(180 54.3029 46.6622)" fill="#ED1C24"/>
<ellipse cx="46.6625" cy="46.6622" rx="0.820188" ry="0.820188" transform="rotate(180 46.6625 46.6622)" fill="#ED1C24"/>
<ellipse cx="39.0221" cy="46.6622" rx="0.820188" ry="0.820188" transform="rotate(180 39.0221 46.6622)" fill="#ED1C24"/>
<ellipse cx="31.3817" cy="46.6622" rx="0.820188" ry="0.820188" transform="rotate(180 31.3817 46.6622)" fill="#ED1C24"/>
<ellipse cx="23.7413" cy="46.6622" rx="0.820188" ry="0.820188" transform="rotate(180 23.7413 46.6622)" fill="#ED1C24"/>
<ellipse cx="16.101" cy="46.6622" rx="0.820188" ry="0.820188" transform="rotate(180 16.101 46.6622)" fill="#ED1C24"/>
<ellipse cx="8.46057" cy="46.6622" rx="0.820188" ry="0.820188" transform="rotate(180 8.46057 46.6622)" fill="#ED1C24"/>
<ellipse cx="0.820193" cy="46.6622" rx="0.820188" ry="0.820188" transform="rotate(180 0.820193 46.6622)" fill="#ED1C24"/>
<ellipse cx="54.3029" cy="39.0216" rx="0.820188" ry="0.820188" transform="rotate(180 54.3029 39.0216)" fill="#ED1C24"/>
<ellipse cx="46.6625" cy="39.0216" rx="0.820188" ry="0.820188" transform="rotate(180 46.6625 39.0216)" fill="#ED1C24"/>
<ellipse cx="39.0221" cy="39.0216" rx="0.820188" ry="0.820188" transform="rotate(180 39.0221 39.0216)" fill="#ED1C24"/>
<ellipse cx="31.3817" cy="39.0216" rx="0.820188" ry="0.820188" transform="rotate(180 31.3817 39.0216)" fill="#ED1C24"/>
<ellipse cx="23.7413" cy="39.0216" rx="0.820188" ry="0.820188" transform="rotate(180 23.7413 39.0216)" fill="#ED1C24"/>
<ellipse cx="16.101" cy="39.0216" rx="0.820188" ry="0.820188" transform="rotate(180 16.101 39.0216)" fill="#ED1C24"/>
<ellipse cx="8.46057" cy="39.0216" rx="0.820188" ry="0.820188" transform="rotate(180 8.46057 39.0216)" fill="#ED1C24"/>
<ellipse cx="0.820193" cy="39.0216" rx="0.820188" ry="0.820188" transform="rotate(180 0.820193 39.0216)" fill="#ED1C24"/>
<ellipse cx="54.3029" cy="31.3815" rx="0.820188" ry="0.820188" transform="rotate(180 54.3029 31.3815)" fill="#ED1C24"/>
<ellipse cx="46.6625" cy="31.3815" rx="0.820188" ry="0.820188" transform="rotate(180 46.6625 31.3815)" fill="#ED1C24"/>
<ellipse cx="39.0221" cy="31.3815" rx="0.820188" ry="0.820188" transform="rotate(180 39.0221 31.3815)" fill="#ED1C24"/>
<ellipse cx="31.3817" cy="31.3815" rx="0.820188" ry="0.820188" transform="rotate(180 31.3817 31.3815)" fill="#ED1C24"/>
<ellipse cx="23.7413" cy="31.3815" rx="0.820188" ry="0.820188" transform="rotate(180 23.7413 31.3815)" fill="#ED1C24"/>
<ellipse cx="16.101" cy="31.3815" rx="0.820188" ry="0.820188" transform="rotate(180 16.101 31.3815)" fill="#ED1C24"/>
<ellipse cx="8.46057" cy="31.3815" rx="0.820188" ry="0.820188" transform="rotate(180 8.46057 31.3815)" fill="#ED1C24"/>
<ellipse cx="0.820193" cy="31.3815" rx="0.820188" ry="0.820188" transform="rotate(180 0.820193 31.3815)" fill="#ED1C24"/>
<ellipse cx="54.3029" cy="23.7408" rx="0.820188" ry="0.820188" transform="rotate(180 54.3029 23.7408)" fill="#ED1C24"/>
<ellipse cx="46.6625" cy="23.7408" rx="0.820188" ry="0.820188" transform="rotate(180 46.6625 23.7408)" fill="#ED1C24"/>
<ellipse cx="39.0221" cy="23.7408" rx="0.820188" ry="0.820188" transform="rotate(180 39.0221 23.7408)" fill="#ED1C24"/>
<ellipse cx="31.3817" cy="23.7408" rx="0.820188" ry="0.820188" transform="rotate(180 31.3817 23.7408)" fill="#ED1C24"/>
<ellipse cx="23.7413" cy="23.7408" rx="0.820188" ry="0.820188" transform="rotate(180 23.7413 23.7408)" fill="#ED1C24"/>
<ellipse cx="16.101" cy="23.7408" rx="0.820188" ry="0.820188" transform="rotate(180 16.101 23.7408)" fill="#ED1C24"/>
<ellipse cx="8.46057" cy="23.7408" rx="0.820188" ry="0.820188" transform="rotate(180 8.46057 23.7408)" fill="#ED1C24"/>
<ellipse cx="0.820193" cy="23.7408" rx="0.820188" ry="0.820188" transform="rotate(180 0.820193 23.7408)" fill="#ED1C24"/>
<ellipse cx="54.3029" cy="16.1007" rx="0.820188" ry="0.820188" transform="rotate(180 54.3029 16.1007)" fill="#ED1C24"/>
<ellipse cx="46.6625" cy="16.1007" rx="0.820188" ry="0.820188" transform="rotate(180 46.6625 16.1007)" fill="#ED1C24"/>
<ellipse cx="39.0221" cy="16.1007" rx="0.820188" ry="0.820188" transform="rotate(180 39.0221 16.1007)" fill="#ED1C24"/>
<ellipse cx="31.3817" cy="16.1007" rx="0.820188" ry="0.820188" transform="rotate(180 31.3817 16.1007)" fill="#ED1C24"/>
<ellipse cx="23.7413" cy="16.1007" rx="0.820188" ry="0.820188" transform="rotate(180 23.7413 16.1007)" fill="#ED1C24"/>
<ellipse cx="16.101" cy="16.1007" rx="0.820188" ry="0.820188" transform="rotate(180 16.101 16.1007)" fill="#ED1C24"/>
<ellipse cx="8.46057" cy="16.1007" rx="0.820188" ry="0.820188" transform="rotate(180 8.46057 16.1007)" fill="#ED1C24"/>
<ellipse cx="0.820193" cy="16.1007" rx="0.820188" ry="0.820188" transform="rotate(180 0.820193 16.1007)" fill="#ED1C24"/>
<ellipse cx="54.3029" cy="8.46009" rx="0.820188" ry="0.820188" transform="rotate(180 54.3029 8.46009)" fill="#ED1C24"/>
<ellipse cx="46.6625" cy="8.46009" rx="0.820188" ry="0.820188" transform="rotate(180 46.6625 8.46009)" fill="#ED1C24"/>
<ellipse cx="39.0221" cy="8.46009" rx="0.820188" ry="0.820188" transform="rotate(180 39.0221 8.46009)" fill="#ED1C24"/>
<ellipse cx="31.3817" cy="8.46009" rx="0.820188" ry="0.820188" transform="rotate(180 31.3817 8.46009)" fill="#ED1C24"/>
<ellipse cx="23.7413" cy="8.46009" rx="0.820188" ry="0.820188" transform="rotate(180 23.7413 8.46009)" fill="#ED1C24"/>
<ellipse cx="16.101" cy="8.46009" rx="0.820188" ry="0.820188" transform="rotate(180 16.101 8.46009)" fill="#ED1C24"/>
<ellipse cx="8.46057" cy="8.46009" rx="0.820188" ry="0.820188" transform="rotate(180 8.46057 8.46009)" fill="#ED1C24"/>
<ellipse cx="0.820193" cy="8.46009" rx="0.820188" ry="0.820188" transform="rotate(180 0.820193 8.46009)" fill="#ED1C24"/>
<ellipse cx="54.3029" cy="0.819949" rx="0.820188" ry="0.820188" transform="rotate(180 54.3029 0.819949)" fill="#ED1C24"/>
<ellipse cx="46.6625" cy="0.819949" rx="0.820188" ry="0.820188" transform="rotate(180 46.6625 0.819949)" fill="#ED1C24"/>
<ellipse cx="39.0221" cy="0.819949" rx="0.820188" ry="0.820188" transform="rotate(180 39.0221 0.819949)" fill="#ED1C24"/>
<ellipse cx="31.3817" cy="0.819949" rx="0.820188" ry="0.820188" transform="rotate(180 31.3817 0.819949)" fill="#ED1C24"/>
<ellipse cx="23.7413" cy="0.819949" rx="0.820188" ry="0.820188" transform="rotate(180 23.7413 0.819949)" fill="#ED1C24"/>
<ellipse cx="16.101" cy="0.819949" rx="0.820188" ry="0.820188" transform="rotate(180 16.101 0.819949)" fill="#ED1C24"/>
<ellipse cx="8.46057" cy="0.819949" rx="0.820188" ry="0.820188" transform="rotate(180 8.46057 0.819949)" fill="#ED1C24"/>
<ellipse cx="0.820193" cy="0.819949" rx="0.820188" ry="0.820188" transform="rotate(180 0.820193 0.819949)" fill="#ED1C24"/>
</svg>
