<svg width="79" height="78" viewBox="0 0 79 78" fill="none" xmlns="http://www.w3.org/2000/svg">
<circle cx="2.4965" cy="2.09507" r="2.09507" fill="#F9B9BB"/>
<circle cx="2.4965" cy="20.5317" r="2.09507" fill="#F9B9BB"/>
<circle cx="2.4965" cy="38.9683" r="2.09507" fill="#F9B9BB"/>
<circle cx="2.4965" cy="57.4049" r="2.09507" fill="#F9B9BB"/>
<circle cx="2.4965" cy="75.8415" r="2.09507" fill="#F9B9BB"/>
<circle cx="20.9331" cy="2.09507" r="2.09507" fill="#F9B9BB"/>
<circle cx="20.9331" cy="20.5317" r="2.09507" fill="#F9B9BB"/>
<circle cx="20.9331" cy="38.9683" r="2.09507" fill="#F9B9BB"/>
<circle cx="20.9331" cy="57.4049" r="2.09507" fill="#F9B9BB"/>
<circle cx="20.9331" cy="75.8415" r="2.09507" fill="#F9B9BB"/>
<circle cx="39.3697" cy="2.09507" r="2.09507" fill="#F9B9BB"/>
<circle cx="39.3697" cy="20.5317" r="2.09507" fill="#F9B9BB"/>
<circle cx="39.3697" cy="38.9683" r="2.09507" fill="#F9B9BB"/>
<circle cx="39.3697" cy="57.4049" r="2.09507" fill="#F9B9BB"/>
<circle cx="39.3697" cy="75.8415" r="2.09507" fill="#F9B9BB"/>
<circle cx="57.8064" cy="2.09507" r="2.09507" fill="#F9B9BB"/>
<circle cx="57.8064" cy="20.5317" r="2.09507" fill="#F9B9BB"/>
<circle cx="57.8064" cy="38.9683" r="2.09507" fill="#F9B9BB"/>
<circle cx="57.8064" cy="57.4049" r="2.09507" fill="#F9B9BB"/>
<circle cx="57.8064" cy="75.8415" r="2.09507" fill="#F9B9BB"/>
<circle cx="76.243" cy="2.09507" r="2.09507" fill="#F9B9BB"/>
<circle cx="76.243" cy="20.5317" r="2.09507" fill="#F9B9BB"/>
<circle cx="76.243" cy="38.9683" r="2.09507" fill="#F9B9BB"/>
<circle cx="76.243" cy="57.4049" r="2.09507" fill="#F9B9BB"/>
<circle cx="76.243" cy="75.8415" r="2.09507" fill="#F9B9BB"/>
</svg>
