<svg width="106" height="134" viewBox="0 0 106 134" fill="none" xmlns="http://www.w3.org/2000/svg">
<circle cx="104" cy="132" r="1.66667" transform="rotate(180 104 132)" fill="#ED1C24"/>
<circle cx="104" cy="117.333" r="1.66667" transform="rotate(180 104 117.333)" fill="#ED1C24"/>
<circle cx="104" cy="102.666" r="1.66667" transform="rotate(180 104 102.666)" fill="#ED1C24"/>
<circle cx="104" cy="87.9998" r="1.66667" transform="rotate(180 104 87.9998)" fill="#ED1C24"/>
<circle cx="104" cy="73.3333" r="1.66667" transform="rotate(180 104 73.3333)" fill="#ED1C24"/>
<circle cx="104" cy="44.9998" r="1.66667" transform="rotate(180 104 44.9998)" fill="#ED1C24"/>
<circle cx="104" cy="15.9998" r="1.66667" transform="rotate(180 104 15.9998)" fill="#ED1C24"/>
<circle cx="104" cy="58.9998" r="1.66667" transform="rotate(180 104 58.9998)" fill="#ED1C24"/>
<circle cx="104" cy="30.6663" r="1.66667" transform="rotate(180 104 30.6663)" fill="#ED1C24"/>
<circle cx="104" cy="1.66634" r="1.66667" transform="rotate(180 104 1.66634)" fill="#ED1C24"/>
<circle cx="89.3336" cy="132" r="1.66667" transform="rotate(180 89.3336 132)" fill="#ED1C24"/>
<circle cx="89.3336" cy="117.333" r="1.66667" transform="rotate(180 89.3336 117.333)" fill="#ED1C24"/>
<circle cx="89.3336" cy="102.666" r="1.66667" transform="rotate(180 89.3336 102.666)" fill="#ED1C24"/>
<circle cx="89.3336" cy="87.9998" r="1.66667" transform="rotate(180 89.3336 87.9998)" fill="#ED1C24"/>
<circle cx="89.3338" cy="73.3333" r="1.66667" transform="rotate(180 89.3338 73.3333)" fill="#ED1C24"/>
<circle cx="89.3338" cy="44.9998" r="1.66667" transform="rotate(180 89.3338 44.9998)" fill="#ED1C24"/>
<circle cx="89.3338" cy="15.9998" r="1.66667" transform="rotate(180 89.3338 15.9998)" fill="#ED1C24"/>
<circle cx="89.3338" cy="58.9998" r="1.66667" transform="rotate(180 89.3338 58.9998)" fill="#ED1C24"/>
<circle cx="89.3338" cy="30.6663" r="1.66667" transform="rotate(180 89.3338 30.6663)" fill="#ED1C24"/>
<circle cx="89.3338" cy="1.66634" r="1.66667" transform="rotate(180 89.3338 1.66634)" fill="#ED1C24"/>
<circle cx="74.6671" cy="132" r="1.66667" transform="rotate(180 74.6671 132)" fill="#ED1C24"/>
<circle cx="31.0003" cy="132" r="1.66667" transform="rotate(180 31.0003 132)" fill="#ED1C24"/>
<circle cx="74.6671" cy="117.333" r="1.66667" transform="rotate(180 74.6671 117.333)" fill="#ED1C24"/>
<circle cx="31.0003" cy="117.333" r="1.66667" transform="rotate(180 31.0003 117.333)" fill="#ED1C24"/>
<circle cx="74.6671" cy="102.666" r="1.66667" transform="rotate(180 74.6671 102.666)" fill="#ED1C24"/>
<circle cx="31.0003" cy="102.666" r="1.66667" transform="rotate(180 31.0003 102.666)" fill="#ED1C24"/>
<circle cx="74.6671" cy="87.9998" r="1.66667" transform="rotate(180 74.6671 87.9998)" fill="#ED1C24"/>
<circle cx="31.0003" cy="87.9998" r="1.66667" transform="rotate(180 31.0003 87.9998)" fill="#ED1C24"/>
<circle cx="74.6668" cy="73.3333" r="1.66667" transform="rotate(180 74.6668 73.3333)" fill="#ED1C24"/>
<circle cx="31.0001" cy="73.3333" r="1.66667" transform="rotate(180 31.0001 73.3333)" fill="#ED1C24"/>
<circle cx="74.6668" cy="44.9998" r="1.66667" transform="rotate(180 74.6668 44.9998)" fill="#ED1C24"/>
<circle cx="31.0001" cy="44.9998" r="1.66667" transform="rotate(180 31.0001 44.9998)" fill="#ED1C24"/>
<circle cx="74.6668" cy="15.9998" r="1.66667" transform="rotate(180 74.6668 15.9998)" fill="#ED1C24"/>
<circle cx="31.0001" cy="15.9998" r="1.66667" transform="rotate(180 31.0001 15.9998)" fill="#ED1C24"/>
<circle cx="74.6668" cy="58.9998" r="1.66667" transform="rotate(180 74.6668 58.9998)" fill="#ED1C24"/>
<circle cx="31.0001" cy="58.9998" r="1.66667" transform="rotate(180 31.0001 58.9998)" fill="#ED1C24"/>
<circle cx="74.6668" cy="30.6663" r="1.66667" transform="rotate(180 74.6668 30.6663)" fill="#ED1C24"/>
<circle cx="31.0001" cy="30.6663" r="1.66667" transform="rotate(180 31.0001 30.6663)" fill="#ED1C24"/>
<circle cx="74.6668" cy="1.66634" r="1.66667" transform="rotate(180 74.6668 1.66634)" fill="#ED1C24"/>
<circle cx="31.0001" cy="1.66634" r="1.66667" transform="rotate(180 31.0001 1.66634)" fill="#ED1C24"/>
<circle cx="60.0003" cy="132" r="1.66667" transform="rotate(180 60.0003 132)" fill="#ED1C24"/>
<circle cx="16.3336" cy="132" r="1.66667" transform="rotate(180 16.3336 132)" fill="#ED1C24"/>
<circle cx="60.0003" cy="117.333" r="1.66667" transform="rotate(180 60.0003 117.333)" fill="#ED1C24"/>
<circle cx="16.3336" cy="117.333" r="1.66667" transform="rotate(180 16.3336 117.333)" fill="#ED1C24"/>
<circle cx="60.0003" cy="102.666" r="1.66667" transform="rotate(180 60.0003 102.666)" fill="#ED1C24"/>
<circle cx="16.3336" cy="102.666" r="1.66667" transform="rotate(180 16.3336 102.666)" fill="#ED1C24"/>
<circle cx="60.0003" cy="87.9998" r="1.66667" transform="rotate(180 60.0003 87.9998)" fill="#ED1C24"/>
<circle cx="16.3336" cy="87.9998" r="1.66667" transform="rotate(180 16.3336 87.9998)" fill="#ED1C24"/>
<circle cx="60.0003" cy="73.3333" r="1.66667" transform="rotate(180 60.0003 73.3333)" fill="#ED1C24"/>
<circle cx="16.3336" cy="73.3333" r="1.66667" transform="rotate(180 16.3336 73.3333)" fill="#ED1C24"/>
<circle cx="60.0003" cy="44.9998" r="1.66667" transform="rotate(180 60.0003 44.9998)" fill="#ED1C24"/>
<circle cx="16.3336" cy="44.9998" r="1.66667" transform="rotate(180 16.3336 44.9998)" fill="#ED1C24"/>
<circle cx="60.0003" cy="15.9998" r="1.66667" transform="rotate(180 60.0003 15.9998)" fill="#ED1C24"/>
<circle cx="16.3336" cy="15.9998" r="1.66667" transform="rotate(180 16.3336 15.9998)" fill="#ED1C24"/>
<circle cx="60.0003" cy="58.9998" r="1.66667" transform="rotate(180 60.0003 58.9998)" fill="#ED1C24"/>
<circle cx="16.3336" cy="58.9998" r="1.66667" transform="rotate(180 16.3336 58.9998)" fill="#ED1C24"/>
<circle cx="60.0003" cy="30.6663" r="1.66667" transform="rotate(180 60.0003 30.6663)" fill="#ED1C24"/>
<circle cx="16.3336" cy="30.6663" r="1.66667" transform="rotate(180 16.3336 30.6663)" fill="#ED1C24"/>
<circle cx="60.0003" cy="1.66634" r="1.66667" transform="rotate(180 60.0003 1.66634)" fill="#ED1C24"/>
<circle cx="16.3336" cy="1.66634" r="1.66667" transform="rotate(180 16.3336 1.66634)" fill="#ED1C24"/>
<circle cx="45.3336" cy="132" r="1.66667" transform="rotate(180 45.3336 132)" fill="#ED1C24"/>
<circle cx="1.66683" cy="132" r="1.66667" transform="rotate(180 1.66683 132)" fill="#ED1C24"/>
<circle cx="45.3336" cy="117.333" r="1.66667" transform="rotate(180 45.3336 117.333)" fill="#ED1C24"/>
<circle cx="1.66683" cy="117.333" r="1.66667" transform="rotate(180 1.66683 117.333)" fill="#ED1C24"/>
<circle cx="45.3336" cy="102.666" r="1.66667" transform="rotate(180 45.3336 102.666)" fill="#ED1C24"/>
<circle cx="1.66683" cy="102.666" r="1.66667" transform="rotate(180 1.66683 102.666)" fill="#ED1C24"/>
<circle cx="45.3336" cy="87.9998" r="1.66667" transform="rotate(180 45.3336 87.9998)" fill="#ED1C24"/>
<circle cx="1.66683" cy="87.9998" r="1.66667" transform="rotate(180 1.66683 87.9998)" fill="#ED1C24"/>
<circle cx="45.3338" cy="73.3333" r="1.66667" transform="rotate(180 45.3338 73.3333)" fill="#ED1C24"/>
<circle cx="1.66707" cy="73.3333" r="1.66667" transform="rotate(180 1.66707 73.3333)" fill="#ED1C24"/>
<circle cx="45.3338" cy="44.9998" r="1.66667" transform="rotate(180 45.3338 44.9998)" fill="#ED1C24"/>
<circle cx="1.66707" cy="44.9998" r="1.66667" transform="rotate(180 1.66707 44.9998)" fill="#ED1C24"/>
<circle cx="45.3338" cy="15.9998" r="1.66667" transform="rotate(180 45.3338 15.9998)" fill="#ED1C24"/>
<circle cx="1.66707" cy="15.9998" r="1.66667" transform="rotate(180 1.66707 15.9998)" fill="#ED1C24"/>
<circle cx="45.3338" cy="58.9998" r="1.66667" transform="rotate(180 45.3338 58.9998)" fill="#ED1C24"/>
<circle cx="1.66707" cy="58.9998" r="1.66667" transform="rotate(180 1.66707 58.9998)" fill="#ED1C24"/>
<circle cx="45.3338" cy="30.6663" r="1.66667" transform="rotate(180 45.3338 30.6663)" fill="#ED1C24"/>
<circle cx="1.66707" cy="30.6663" r="1.66667" transform="rotate(180 1.66707 30.6663)" fill="#ED1C24"/>
<circle cx="45.3338" cy="1.66634" r="1.66667" transform="rotate(180 45.3338 1.66634)" fill="#ED1C24"/>
<circle cx="1.66707" cy="1.66634" r="1.66667" transform="rotate(180 1.66707 1.66634)" fill="#ED1C24"/>
</svg>
